<?xml version="1.0" encoding="utf-8"?>
<!-- Generator: Adobe Illustrator 26.5.0, SVG Export Plug-In . SVG Version: 6.00 Build 0)  -->
<svg version="1.1" id="Layer_1" xmlns="http://www.w3.org/2000/svg" xmlns:xlink="http://www.w3.org/1999/xlink" x="0px" y="0px"
	 viewBox="0 0 500 500" style="enable-background:new 0 0 500 500;" xml:space="preserve">
<style type="text/css">
	.st0{fill:#2D4057;}
	.st1{fill:#FFFFFF;}
</style>
<g>
	<circle class="st0" cx="250" cy="250.1" r="218.2"/>
	<path class="st1" d="M250,475.7c-60.3,0-117-23.5-159.6-66.1s-66.1-99.3-66.1-159.6c0-60.3,23.5-117,66.1-159.6
		C133,47.9,189.7,24.4,250,24.4c60.3,0,117,23.5,159.6,66.1c42.6,42.6,66.1,99.3,66.1,159.6c0,60.3-23.5,117-66.1,159.6
		C367,452.3,310.3,475.7,250,475.7z M250,39.4c-116.2,0-210.7,94.5-210.7,210.7c0,116.2,94.5,210.7,210.7,210.7
		c116.2,0,210.7-94.5,210.7-210.7C460.7,133.9,366.2,39.4,250,39.4z"/>
</g>
<g>
	<g>
		<g>
			<path class="st1" d="M383.3,286.9c-0.1,0-0.1,0-0.2,0c-10.1,0-19.6,4.5-26,12.4l-9.5,11.7c-2.1,2.5-5,4-8.3,4.2
				c-3.3,0.2-6.3-1-8.6-3.4L316.2,297c-5.2-5.2-12-8.2-19.4-8.3c-7.4-0.1-14.4,2.6-19.7,7.6l-19,17.9c-4.5,4.2-11.4,4.1-15.8-0.2
				l-16.5-16.5c-5.3-5.3-12.5-8.2-20-8.2c-7.6,0.1-14.6,3.1-19.9,8.5l-14.2,14.7c-2.2,2.3-5.2,3.5-8.4,3.4c-3.2-0.1-6.1-1.4-8.2-3.8
				l-13.5-15c-6.3-7.1-15.4-11.1-24.9-11.1h-0.2c-4.6,0-8.3,3.7-8.3,8.3s3.7,8.3,8.3,8.3h0.2c4.8,0,9.4,2,12.5,5.6l13.5,15
				c5.2,5.7,12.5,9.1,20.3,9.3c7.8,0.1,15.3-2.9,20.6-8.5l14.2-14.7c2.1-2.2,5-3.4,8.1-3.4c0,0,0.1,0,0.1,0c3,0,5.9,1.2,8,3.3
				l16.5,16.5c5.2,5.2,12,8.1,19.4,8.2c0.1,0,0.3,0,0.4,0c7.2,0,13.9-2.7,19.2-7.6l19-17.9c4.5-4.2,11.6-4,15.9,0.3l14.6,14.8
				c5.6,5.7,13.3,8.7,21.3,8.3c7.9-0.4,15.4-4.1,20.4-10.3l9.5-11.7c3.2-4,8-6.2,13.1-6.2c0,0,0.1,0,0.1,0c4.6,0,8.3-3.7,8.3-8.2
				C391.6,290.7,387.9,287,383.3,286.9z"/>
		</g>
	</g>
	<g>
		<g>
			<path class="st1" d="M383.7,338.8c-0.1,0-0.1,0-0.2,0c-10.1,0-19.6,4.5-26,12.4l-9.5,11.7c-2.1,2.5-5,4-8.3,4.2
				c-3.3,0.2-6.3-1-8.6-3.4l-14.6-14.8c-5.2-5.2-12-8.2-19.4-8.3c-7.3-0.1-14.4,2.6-19.7,7.6l-19,17.9c-4.5,4.2-11.4,4.1-15.8-0.2
				l-16.5-16.5c-5.3-5.3-12.4-8.3-20-8.2c-7.6,0.1-14.6,3.1-19.9,8.5L172,364.2c-2.2,2.3-5.2,3.5-8.4,3.4c-3.2-0.1-6.1-1.4-8.2-3.8
				l-13.5-15c-6.3-7.1-15.4-11.1-24.9-11.1h-0.2c-4.6,0-8.3,3.7-8.3,8.3s3.7,8.3,8.3,8.3h0.2c4.8,0,9.4,2,12.5,5.6l13.5,15
				c5.2,5.7,12.5,9.1,20.3,9.3c7.7,0.2,15.3-2.9,20.6-8.5l14.2-14.7c2.1-2.2,5-3.4,8.1-3.4c0,0,0.1,0,0.1,0c3,0,5.9,1.2,8,3.3
				l16.5,16.5c5.2,5.2,12,8.1,19.4,8.2c0.1,0,0.3,0,0.4,0c7.2,0,13.9-2.7,19.2-7.6l19-17.9c4.5-4.2,11.6-4,15.9,0.3l14.6,14.8
				c5.6,5.7,13.3,8.7,21.3,8.3c7.9-0.4,15.4-4.1,20.4-10.3l9.5-11.7c3.2-4,8-6.2,13.1-6.2c0,0,0.1,0,0.1,0c4.6,0,8.3-3.7,8.3-8.2
				C392,342.5,388.3,338.8,383.7,338.8z"/>
		</g>
	</g>
	<g>
		<g>
			<path class="st1" d="M258.5,146.1v-23.3c0-4.6-3.7-8.3-8.3-8.3c-4.6,0-8.3,3.7-8.3,8.3v23.3c-21.3,2.7-39.3,15.7-49,33.8h114.6
				C297.8,161.8,279.7,148.8,258.5,146.1z"/>
		</g>
	</g>
	<g>
		<g>
			<path class="st1" d="M313.5,196.4H186.8c-1,4.4-1.5,9-1.5,13.7c0,35.6,29.1,64.6,64.8,64.6c35.8,0,64.8-29,64.8-64.6
				C315,205.4,314.5,200.8,313.5,196.4z"/>
		</g>
	</g>
</g>
</svg>
